<svg xmlns="http://www.w3.org/2000/svg" width="200" height="200">
  <g class="currentLayer" transform="translate(-298.473 -35.95)">
    <circle cx="398.473" cy="135.95" r="100" fill="#f5f5f6"/>
    <path fill="#5df2d6" stroke="#fff" stroke-width="2" d="M475.062 149.1c8.484 10.988-10.59 46.453-27.026 59.142-16.436 12.69-45.607 11.995-54.09 1.005-8.485-10.99-1.54-33.162 14.896-45.85 16.436-12.69 57.736-25.288 66.22-14.298z" stroke-linejoin="round"/>
    <path fill="#00bfa5" stroke="#fff" stroke-width="2" d="M401.185 112.825c13.883.044 30.183 36.867 30.116 57.63-.065 20.765-18.514 43.373-32.397 43.328-13.883-.044-27.13-19.134-27.063-39.898.066-20.765 15.462-61.105 29.345-61.06z" stroke-linejoin="round"/>
    <path fill="#008e76" stroke="#fff" stroke-width="2" d="M317.07 156.588c6.566-12.232 46.728-9.307 65.024.514 18.295 9.82 29.575 36.732 23.01 48.964-6.567 12.233-29.643 14.95-47.938 5.128-18.296-9.82-46.662-42.373-40.096-54.606z" stroke-linejoin="round"/>
    <text x="338.78" y="109.312" fill="#606060" font-size="72.811" transform="scale(1.09657 .91193)" font-family="Ubuntu">
      N
    </text>
  </g>
</svg>
